<?xml version="1.0" encoding="utf-8"?>
<!-- Generator: Adobe Illustrator 15.0.0, SVG Export Plug-In . SVG Version: 6.00 Build 0)  -->
<!DOCTYPE svg PUBLIC "-//W3C//DTD SVG 1.1//EN" "http://www.w3.org/Graphics/SVG/1.1/DTD/svg11.dtd">
<svg version="1.1" id="Layer_1" xmlns="http://www.w3.org/2000/svg" xmlns:xlink="http://www.w3.org/1999/xlink" x="0px" y="0px"
	 width="360px" height="360px" viewBox="0 0 360 360" enable-background="new 0 0 360 360" xml:space="preserve">
<g>
	<g>
		<path d="M161.282,331.64l-39-5.225l11.979-11.567l-54.917-16.459l-50.059,11.709l35.071-54.552
			c-4.144-1.124-8.833-2.792-13.46-5.26c-14.263-7.608-23.209-20.768-24.182-22.243l-3.828-5.808l17.088-23.548l-19.755-58.239
			l2.145-3.885c0.06-0.114,8.972-17.241,5.709-40.769c-4.388-31.63,14.514-55.08,15.321-56.062l10.697-13.036l6.379,15.611
			c0.026,0.059,4.992,11.49,14.311,15.205c11.414,4.55,20.127,15.493,25.082,23.116l44.015-4.853l35.151,18.945l35.976-18.94
			l44.05,4.857c3.819-5.48,10.741-13.635,21.638-20.499c12.771-8.046,17.846-18.247,17.896-18.349l8.337-17.711l9.527,17.149
			c1.717,3.09,16.7,30.863,14.351,54.191c-1.844,18.303,6.292,42.507,6.374,42.75l1.107,3.237l-19.43,57.282l16.486,22.717
			l-2.516,5.37c-0.706,1.507-7.448,14.948-26.693,23.465c-4.21,1.862-8.255,3.413-12.092,4.635l35.504,55.224l-50.059-11.709
			l-54.919,16.459l11.923,11.513l-39.25,5.376l-17.807,8.639L161.282,331.64z"/>
		<path d="M307.293,35.094l4.764,8.574c0.653,1.176,15.978,29.06,13.743,51.247c-1.965,19.506,6.532,44.625,6.618,44.876
			l0.555,1.621l-19.715,58.123l16.271,22.422l-1.258,2.686c-0.249,0.531-6.295,13.088-24.176,21
			c-7.627,3.375-13.626,5.209-17.979,6.205l32.485,50.529l-39.279-9.188l-64.428,19.309l10.653,10.287l-29.786,4.08l-16.341,7.928
			l-16.68-8.029l-29.494-3.951l10.682-10.314l-64.427-19.309l-39.279,9.188l32.271-50.197c-5.308-0.875-12.369-2.666-19.234-6.328
			c-13.404-7.15-21.992-20.031-22.352-20.576l-1.913-2.902l16.572-22.838l-19.878-58.6l1.072-1.942
			c0.092-0.17,9.822-18.401,6.287-43.889c-4.088-29.467,13.478-51.269,14.228-52.183l5.349-6.518l3.189,7.805
			c0.051,0.121,5.68,13.419,17.103,17.972C84.731,66.89,93.669,79.97,97.274,85.969l45.596-5.027l36.129,19.473l36.983-19.47
			l45.571,5.024c2.972-4.777,9.787-14.001,21.815-21.578c14.24-8.971,19.692-20.309,19.746-20.422L307.293,35.094 M306.553,13.063
			l-8.355,17.75l-4.134,8.782c-0.296,0.57-4.956,9.301-16.053,16.291c-10.078,6.349-16.981,13.755-21.302,19.436l-39.625-4.369
			l-3.061-0.337l-2.724,1.434l-32.245,16.976L147.64,72.093l-2.757-1.486l-3.114,0.343l-39.439,4.348
			C96.8,67.377,88.011,57.375,76.64,52.843c-6.033-2.405-10.363-9.811-11.557-12.53l-3.151-7.712l-6.379-15.611L44.854,30.026
			l-5.348,6.518c-2.164,2.636-21.021,26.727-16.414,59.941c2.946,21.24-4.746,36.879-5.188,37.753l-1.015,1.838l-2.145,3.885
			l1.425,4.202l18.208,53.676L20.86,216.469l-4.085,5.63l3.828,5.807l1.913,2.902c1.047,1.587,10.657,15.722,26.014,23.913
			c2.561,1.366,5.25,2.575,8.053,3.621L31.768,296.94l-13.422,20.878l24.167-5.653l36.67-8.577l45.408,13.609l-13.276,12.819
			l20.598,2.76l27.909,3.738l15.239,7.336l4.377,2.107l4.371-2.12l14.902-7.23l28.201-3.862l20.513-2.81l-13.192-12.738
			l45.409-13.609l36.67,8.577l24.168,5.653l-13.422-20.878l-25.354-39.436c2.109-0.808,4.264-1.698,6.459-2.669
			c20.918-9.257,28.423-24.248,29.21-25.927l1.259-2.688l2.515-5.369l-3.482-4.799l-13.217-18.213l18.044-53.198l1.101-3.243
			l-1.108-3.24l-0.555-1.621c-0.073-0.217-7.856-23.456-6.128-40.614c2.503-24.853-13.162-53.905-14.957-57.136l-4.765-8.575
			L306.553,13.063L306.553,13.063z"/>
	</g>
	<g>
		<polyline fill="#FFFFFF" stroke="#000000" stroke-width="10.0527" stroke-linecap="square" stroke-miterlimit="10" points="
			78.884,222.379 78.884,287.887 178.979,317.887 279.074,287.887 279.074,222.379 		"/>
		<g>
			<polygon fill="#FFFFFF" stroke="#000000" stroke-width="10.0527" stroke-miterlimit="10" points="178.979,329.211 
				193.854,321.994 214.177,319.211 191.578,297.389 178.979,275.568 166.38,297.389 143.781,319.211 163.769,321.889 			"/>
			<polyline fill="#FFFFFF" stroke="#000000" stroke-width="6" stroke-miterlimit="10" points="169.549,311.887 163.769,321.889 
				178.979,329.211 193.854,321.994 188.167,311.891 			"/>
		</g>
		<polyline fill="#FFFFFF" stroke="#000000" stroke-width="6" stroke-linecap="square" stroke-miterlimit="10" points="
			78.884,210.379 78.884,275.887 178.979,305.887 279.074,275.887 279.074,210.379 		"/>
		<polyline fill="#FFFFFF" stroke="#000000" stroke-width="6" stroke-linecap="square" stroke-miterlimit="10" points="
			78.884,200.379 78.884,265.887 178.979,295.887 279.074,265.887 279.074,200.379 		"/>
		<g>
			<polyline fill="#FFFFFF" stroke="#000000" stroke-width="6" stroke-linecap="square" stroke-miterlimit="10" points="
				78.884,190.379 78.884,255.887 178.979,285.887 279.074,255.887 279.074,190.379 			"/>
			<polyline fill="#FFFFFF" stroke="#000000" stroke-width="6" stroke-linecap="square" stroke-miterlimit="10" points="
				78.884,180.379 78.884,245.887 178.979,275.887 279.074,245.887 279.074,180.379 			"/>
		</g>
		<path fill="#FFFFFF" stroke="#000000" stroke-width="10.0527" stroke-miterlimit="10" d="M216.528,86.11l47.326,5.218
			c0,0,6.111-12.826,21.76-22.684s21.615-22.534,21.615-22.534s15.238,27.427,13.136,48.302s6.864,47.01,6.864,47.01l-20,58.961
			l16.057,22.127c0,0-5.291,11.295-21.657,18.535c-16.366,7.242-24.399,6.947-24.399,6.947l30,46.664l-128.25-30l-128.25,30
			l30-46.664c0,0-13.107,0.055-25.537-6.576c-12.43-6.629-20.52-18.906-20.52-18.906l16.057-22.127l-20-58.961
			c0,0,10.697-19.381,6.865-47.008S50.729,46.11,50.729,46.11s6.254,15.303,19.894,20.74s23.481,24.478,23.481,24.478l47.326-5.218
			l37.107,20L216.528,86.11z"/>
		<g>
			<g>
				<polyline fill="#FFFFFF" stroke="#000000" stroke-width="10.0527" stroke-linecap="square" stroke-miterlimit="10" points="
					78.884,161.379 78.884,226.887 178.979,276.887 279.074,226.887 279.074,161.379 				"/>
				<g>
					<g>
						<polyline fill="#FFFFFF" stroke="#000000" stroke-width="10.0527" stroke-linecap="square" stroke-miterlimit="10" points="
							266.243,131.43 257.233,153.914 243.929,166.339 						"/>
						<polyline fill="#FFFFFF" stroke="#000000" stroke-width="10.0527" stroke-linecap="square" stroke-miterlimit="10" points="
							287.335,144.721 282.212,153.914 274.218,161.379 						"/>
						<polyline fill="#FFFFFF" stroke="#000000" stroke-width="10.0527" stroke-linecap="square" stroke-miterlimit="10" points="
							232.938,131.43 223.929,153.914 210.624,166.339 						"/>
					</g>
					<g>
						<polyline fill="#FFFFFF" stroke="#000000" stroke-width="10.0527" stroke-linecap="square" stroke-miterlimit="10" points="
							91.716,131.43 100.726,153.914 114.03,166.339 						"/>
						<polyline fill="#FFFFFF" stroke="#000000" stroke-width="10.0527" stroke-linecap="square" stroke-miterlimit="10" points="
							70.624,144.721 75.745,153.914 83.741,161.379 						"/>
						<polyline fill="#FFFFFF" stroke="#000000" stroke-width="10.0527" stroke-linecap="square" stroke-miterlimit="10" points="
							125.021,131.43 134.03,153.914 147.335,166.339 						"/>
					</g>
				</g>
			</g>
			
				<line fill="#FFFFFF" stroke="#000000" stroke-width="10.0527" stroke-linecap="square" stroke-miterlimit="10" x1="178.979" y1="104.413" x2="178.979" y2="155.028"/>
		</g>
		<polyline fill="#FFFFFF" stroke="#000000" stroke-width="10.0527" stroke-miterlimit="10" points="154.563,249.457 
			161.272,239.896 194.054,239.896 200.763,249.457 		"/>
		<polyline fill="#FFFFFF" stroke="#000000" stroke-width="10.0527" stroke-miterlimit="10" points="167.272,223.896 
			177.742,227.896 188.054,223.896 		"/>
		<polyline fill="#FFFFFF" stroke="#000000" stroke-width="10.0527" stroke-miterlimit="10" points="158.054,207.896 
			127.584,187.896 127.272,207.896 		"/>
		<rect x="139.692" y="206.186" width="12.971" height="12.971"/>
		<g>
			<polyline fill="#FFFFFF" stroke="#000000" stroke-width="10.0527" stroke-miterlimit="10" points="197.272,207.896 
				227.742,187.896 228.054,207.896 			"/>
			<rect x="202.663" y="206.186" width="12.971" height="12.971"/>
		</g>
	</g>
</g>
</svg>
