<?xml version="1.0" encoding="utf-8"?>
<!-- Generator: Adobe Illustrator 15.0.0, SVG Export Plug-In . SVG Version: 6.00 Build 0)  -->
<!DOCTYPE svg PUBLIC "-//W3C//DTD SVG 1.1//EN" "http://www.w3.org/Graphics/SVG/1.1/DTD/svg11.dtd">
<svg version="1.1" id="Layer_1" xmlns="http://www.w3.org/2000/svg" xmlns:xlink="http://www.w3.org/1999/xlink" x="0px" y="0px"
	 width="360px" height="360px" viewBox="0 0 360 360" enable-background="new 0 0 360 360" xml:space="preserve">
<g>
	<g>
		<g>
			<path fill="#FFFFFF" d="M179.231,344.539c-81.159,0-147.187-58.081-147.187-129.472c0-71.391,66.028-129.474,147.187-129.474
				c81.165,0,147.196,58.081,147.196,129.474C326.427,286.458,260.396,344.539,179.231,344.539z"/>
		</g>
		<g>
			<path d="M179.231,91.108c78.246,0,141.683,55.496,141.683,123.96c0,68.464-63.438,123.959-141.683,123.959
				c-78.237,0-141.675-55.497-141.675-123.959C37.556,146.604,100.994,91.108,179.231,91.108 M179.231,80.083
				c-40.51,0-78.665,13.863-107.436,39.035c-29.188,25.538-45.263,59.614-45.263,95.951s16.075,70.412,45.263,95.95
				c28.77,25.171,66.924,39.033,107.436,39.033c40.515,0,78.671-13.862,107.442-39.033c29.191-25.537,45.267-59.613,45.267-95.95
				c0-36.338-16.075-70.415-45.264-95.951C257.902,93.945,219.746,80.083,179.231,80.083L179.231,80.083z"/>
		</g>
	</g>
	<g>
		<g>
			<path fill="#FFFFFF" d="M198.387,314.621c-5.668,3.229-12.23,5.077-19.223,5.077c-6.933,0-13.444-1.815-19.079-4.998"/>
			<path d="M179.164,325.211c-7.641,0-15.176-1.976-21.79-5.712c-2.65-1.497-3.585-4.859-2.088-7.51
				c1.499-2.651,4.86-3.586,7.511-2.088c4.963,2.803,10.623,4.284,16.368,4.284c5.791,0,11.494-1.506,16.492-4.354
				c2.646-1.507,6.012-0.585,7.52,2.06c1.507,2.646,0.585,6.012-2.06,7.52C194.457,323.204,186.866,325.211,179.164,325.211z"/>
		</g>
		<g>
			<g>
				<path fill="#FFFFFF" d="M209.413,323.177c-3.116-2.513-5.893-5.553-8.19-9.093c-2.155-3.316-3.738-6.838-4.775-10.451"/>
				<path d="M209.41,328.689c-1.215,0-2.438-0.399-3.456-1.222c-3.64-2.933-6.787-6.427-9.355-10.382
					c-2.406-3.704-4.239-7.72-5.45-11.932c-0.84-2.926,0.851-5.979,3.776-6.82c2.933-0.839,5.98,0.852,6.82,3.776
					c0.908,3.164,2.287,6.182,4.1,8.971c1.935,2.979,4.298,5.604,7.027,7.805c2.37,1.91,2.743,5.38,0.833,7.75
					C212.615,327.987,211.02,328.689,209.41,328.689z"/>
			</g>
			<g>
				<path fill="#FFFFFF" d="M149.058,323.177c3.117-2.515,5.892-5.553,8.192-9.095c2.152-3.314,3.737-6.836,4.772-10.451"/>
				<path d="M149.061,328.689c-1.609,0-3.204-0.702-4.293-2.053c-1.912-2.369-1.54-5.84,0.83-7.75
					c2.732-2.204,5.097-4.83,7.029-7.807c1.815-2.795,3.193-5.812,4.097-8.967c0.837-2.927,3.889-4.623,6.816-3.782
					c2.927,0.838,4.62,3.89,3.782,6.817c-1.204,4.207-3.038,8.224-5.449,11.936c-2.566,3.954-5.713,7.447-9.354,10.383
					C151.499,328.29,150.276,328.689,149.061,328.689z"/>
			</g>
		</g>
	</g>
	<g>
		<path fill="#FFFFFF" d="M311.993,225.515c4.123,4.28,10.669,5.675,16.339,2.993c7.103-3.359,10.138-11.844,6.779-18.945
			c-3.358-7.103-11.844-10.139-18.944-6.779c-1.522,0.72-2.86,1.678-3.983,2.805"/>
		<path d="M322.246,235.39c-5.249,0-10.411-2.094-14.223-6.051c-2.112-2.193-2.047-5.683,0.146-7.794
			c2.194-2.114,5.684-2.047,7.795,0.146c2.6,2.702,6.625,3.438,10.011,1.834c4.346-2.055,6.209-7.261,4.153-11.605
			c-0.995-2.104-2.75-3.695-4.942-4.479c-2.195-0.786-4.558-0.669-6.661,0.326c-0.915,0.434-1.734,1.01-2.436,1.713
			c-2.148,2.157-5.639,2.163-7.796,0.015c-2.156-2.148-2.163-5.639-0.014-7.796c1.601-1.607,3.462-2.92,5.531-3.897
			c4.765-2.254,10.124-2.519,15.089-0.74c4.966,1.777,8.941,5.38,11.195,10.146c4.653,9.839,0.434,21.631-9.405,26.285
			C327.985,234.77,325.104,235.39,322.246,235.39z"/>
	</g>
	<g>
		<path fill="#FFFFFF" d="M48.007,225.515c-4.124,4.28-10.669,5.675-16.339,2.993c-7.104-3.359-10.138-11.844-6.78-18.945
			c3.359-7.103,11.843-10.139,18.945-6.779c1.521,0.72,2.859,1.678,3.983,2.805"/>
		<path d="M37.754,235.39c-2.857,0-5.739-0.62-8.443-1.898c-9.839-4.654-14.059-16.446-9.406-26.285
			c2.254-4.767,6.23-8.369,11.195-10.146c4.966-1.778,10.325-1.514,15.091,0.74c2.063,0.977,3.923,2.287,5.528,3.895
			c2.15,2.154,2.147,5.645-0.008,7.795c-2.153,2.152-5.644,2.146-7.795-0.007c-0.705-0.707-1.526-1.284-2.439-1.716
			c-2.103-0.996-4.469-1.113-6.662-0.327c-2.193,0.784-3.948,2.376-4.943,4.48c-2.055,4.344-0.191,9.55,4.153,11.604
			c3.39,1.605,7.413,0.865,10.013-1.834c2.113-2.191,5.603-2.258,7.794-0.146c2.192,2.111,2.258,5.602,0.146,7.794
			C48.165,233.295,43.002,235.39,37.754,235.39z"/>
	</g>
	<g>
		<path d="M313.646,65.512"/>
	</g>
</g>
<g>
	<g>
		<g>
			<path d="M133.217,296.461c2.023-6.856,3.624-13.359,4.815-19.496c-3.889,0.337-7.784,0.628-11.684,0.867
				C128.216,284.417,130.512,290.634,133.217,296.461z"/>
		</g>
		<g>
			<path d="M110.221,298.893c5.377-7.7,9.981-14.842,13.843-21.398c-3.77-0.469-7.463-1.052-11.072-1.754
				C112.03,283.487,111.106,291.203,110.221,298.893z"/>
		</g>
		<g>
			<path d="M87.475,292.544c9.145-6.359,17.234-12.131,24.337-17.266c-2.732-2.081-5.273-4.352-7.605-6.795
				C99.365,275.99,93.798,284.021,87.475,292.544z"/>
		</g>
		<g>
			<path d="M155.771,289.504c-1.519-5.29-3.074-10.554-4.665-15.785c-3.531,0.858-7.146,1.734-10.84,2.636
				C144.738,281.448,149.917,285.84,155.771,289.504z"/>
		</g>
	</g>
	<g>
		<path d="M55.688,252.286c14.447,5.673,29.929,8.072,45.304,7.139c-3.314-4.408-6.591-8.878-9.835-13.397
			C79.822,249.977,67.877,252.138,55.688,252.286z"/>
	</g>
	<g>
		<g>
			<path d="M80.156,190.203c4.754,10.313,10.406,19.743,16.689,28.284c1.058-5.183,2.606-10.249,4.607-15.121
				C94.474,199.633,87.335,195.271,80.156,190.203z"/>
		</g>
		<g>
			<path d="M66.354,211.537c7.693,8.173,16.257,15.118,25.384,20.827c-0.543-4.863-0.691-9.796-0.426-14.748
				C83.322,216.332,74.961,214.376,66.354,211.537z"/>
		</g>
		<g>
			<path d="M60.469,228.674c8.377,7.611,18.157,13.549,28.771,17.524c-0.957-4.091-1.769-8.27-2.43-12.521
				C78.083,233.114,69.244,231.507,60.469,228.674z"/>
		</g>
		<g>
			<path d="M159.123,224.224c4.719-4.47,8.692-9.706,11.817-15.503c-5.257,1.184-10.659,1.966-16.16,2.317
				C156.172,215.408,157.618,219.804,159.123,224.224z"/>
		</g>
		<g>
			<path d="M123.84,199.161c0.795-6.454,2.642-12.757,5.449-18.719c2.172,4.934,4.75,9.747,7.739,14.377
				C132.683,196.293,128.293,197.745,123.84,199.161z"/>
		</g>
		<g>
			<path d="M143.12,207.98c1.702-6.277,4.428-12.253,8.051-17.756c1.449,5.192,3.318,10.322,5.619,15.331
				C152.282,206.398,147.727,207.213,143.12,207.98z"/>
		</g>
		<g>
			<path d="M68.076,276.081c10.364-9.222,22.608-16.014,35.788-19.978c-1.417,4.718-2.787,9.479-4.109,14.271
				C89.029,270.561,78.346,272.435,68.076,276.081z"/>
		</g>
		<g>
			<path d="M99.208,180.036c9.272,5.487,17.686,11.468,25.294,17.72c-5.762,0.56-11.401,1.683-16.835,3.323
				C105.213,194.198,102.4,187.171,99.208,180.036z"/>
		</g>
	</g>
</g>
<g>
	<path fill="#FFFFFF" d="M239.386,156.521c-3.771,5.323-8.938,9.771-15.276,12.726"/>
	<path d="M224.112,174.759c-2.075,0-4.064-1.178-4.999-3.184c-1.286-2.759-0.093-6.039,2.666-7.326
		c5.253-2.449,9.785-6.224,13.108-10.916c1.76-2.485,5.198-3.072,7.684-1.313c2.484,1.76,3.072,5.2,1.312,7.685
		c-4.428,6.253-10.46,11.279-17.445,14.536C225.686,174.594,224.894,174.759,224.112,174.759z"/>
</g>
<g>
	<path fill="#FFFFFF" d="M127.938,156.521c3.77,5.323,8.939,9.771,15.277,12.726"/>
	<path d="M143.211,174.759c-0.78,0-1.572-0.166-2.326-0.518c-6.984-3.257-13.017-8.284-17.445-14.535
		c-1.76-2.485-1.172-5.925,1.312-7.685c2.486-1.76,5.925-1.172,7.685,1.312c3.324,4.692,7.856,8.467,13.108,10.917
		c2.759,1.286,3.953,4.566,2.666,7.326C147.276,173.582,145.288,174.759,143.211,174.759z"/>
</g>
<g>
	<g>
		<g>
			<g>
				<path fill="#FFFFFF" d="M236.834,283.631c-24.045,0-43.607-19.564-43.607-43.61c0-24.045,19.562-43.608,43.607-43.608
					c24.046,0,43.608,19.563,43.608,43.608C280.442,264.066,260.88,283.631,236.834,283.631z"/>
			</g>
			<g>
				<path d="M236.834,201.151c21.465,0,38.868,17.403,38.868,38.869c0,21.468-17.403,38.87-38.868,38.87
					c-21.464,0-38.867-17.402-38.867-38.87C197.967,218.555,215.37,201.151,236.834,201.151 M236.834,191.675
					c-26.658,0-48.345,21.688-48.345,48.349c0,26.658,21.687,48.346,48.345,48.346c26.659,0,48.347-21.688,48.347-48.346
					C285.181,213.363,263.493,191.675,236.834,191.675L236.834,191.675z"/>
			</g>
		</g>
		<g>
			<circle cx="236.836" cy="240.022" r="25.43"/>
		</g>
		<g>
			<g>
				<circle fill="#6D6E71" cx="228.091" cy="247.891" r="7.355"/>
			</g>
			<g>
				<circle fill="#6D6E71" cx="237.708" cy="251.387" r="4.088"/>
			</g>
		</g>
	</g>
	<g>
		<g>
			<g>
				<path fill="#FFFFFF" d="M123.165,283.631c-24.044,0-43.607-19.564-43.607-43.61c0-24.045,19.562-43.608,43.607-43.608
					c24.046,0,43.609,19.563,43.609,43.608C166.774,264.066,147.21,283.631,123.165,283.631z"/>
			</g>
			<g>
				<path d="M123.165,201.151c21.468,0,38.87,17.403,38.87,38.869c0,21.468-17.402,38.87-38.87,38.87
					c-21.464,0-38.867-17.402-38.867-38.87C84.297,218.555,101.701,201.151,123.165,201.151 M123.165,191.675
					c-26.658,0-48.345,21.688-48.345,48.349c0,26.658,21.687,48.346,48.345,48.346c26.659,0,48.347-21.688,48.347-48.346
					C171.511,213.363,149.823,191.675,123.165,191.675L123.165,191.675z"/>
			</g>
		</g>
		<g>
			<circle cx="123.167" cy="240.022" r="25.429"/>
		</g>
		<g>
			<g>
				<circle fill="#6D6E71" cx="114.424" cy="247.89" r="7.354"/>
			</g>
			<g>
				<circle fill="#6D6E71" cx="124.041" cy="251.387" r="4.088"/>
			</g>
		</g>
	</g>
</g>
<g>
	<g>
		<path d="M251.121,107.356c-8.4,12.773-29.96,29.72-71.956,29.72c-41.992,0-67.712-15.133-76.749-28.933
			c-4.691-7.167-8.683-20.49,3.439-28.386c12.121-7.896,69.24,11.392,69.24,11.392s49.69-7.476,69.242-11.392
			C263.888,75.842,259.521,94.583,251.121,107.356z"/>
	</g>
	<g>
		<path d="M236.415,96.146c0,0-29.567,17.086-58.419,17.086c-28.854,0-56.933-17.086-56.933-17.086s-8.811-45.227,0-63.622
			c8.814-18.396,37.687-22.781,57.676-22.781c19.991,0,51.442,6.607,57.676,22.781c6.233,16.173-2.059,36.433-2.08,46.825
			C234.315,89.74,236.415,96.146,236.415,96.146z"/>
	</g>
	<g>
		<path fill="#6D6E71" d="M180.554,103.174c-46.56-2.757-61.871-22.8-61.871-22.8l2.382,15.771c0,0,10.343,22.125,57.284,23.099
			c46.941,0.973,58.066-23.099,58.066-23.099l-1.697-9.137C234.718,87.008,218.023,105.393,180.554,103.174z"/>
	</g>
</g>
</svg>
